<svg xmlns="http://www.w3.org/2000/svg" viewBox="0 0 64 64">
  <defs>
    <linearGradient id="g" x1="0" y1="0" x2="1" y2="1">
      <stop offset="0%" stop-color="#2563eb"/>
      <stop offset="100%" stop-color="#1d4ed8"/>
    </linearGradient>
  </defs>
  <rect width="64" height="64" rx="12" fill="url(#g)"/>
  <g fill="#fff">
    <path d="M20 22h24a2 2 0 0 1 2 2v16a2 2 0 0 1-2 2H34l-5.2 5.2a2 2 0 0 1-3.4-1.4V42H20a2 2 0 0 1-2-2V24a2 2 0 0 1 2-2zm4 8a2 2 0 1 0 0 4h16a2 2 0 1 0 0-4H24z"/>
    <circle cx="24" cy="18" r="3"/>
  </g>
</svg>
